<svg width="127" height="141" viewBox="0 0 127 141" fill="none" xmlns="http://www.w3.org/2000/svg">
<path fill-rule="evenodd" clip-rule="evenodd" d="M125.573 40.8384C126.258 42.938 126.505 45.1119 126.5 47.3269C126.489 53.6073 126.491 59.8917 126.492 66.1753C126.493 67.6207 126.493 69.066 126.494 70.5112H126.474C126.474 72.8747 126.478 75.2385 126.481 77.6024C126.491 83.3555 126.501 89.1092 126.453 94.8622C126.418 98.9982 124.96 102.737 122.891 106.239C120.747 109.868 117.929 112.767 114.277 114.902C101.185 122.538 88.131 130.243 75.0835 137.953C70.8943 140.431 66.3697 141.217 61.6138 140.951C57.7211 140.734 54.1499 139.542 50.7619 137.53C37.8635 129.866 24.917 122.279 11.9752 114.687C6.47396 111.463 3.1496 106.524 1.09226 100.567C0.32057 98.3294 0.0317566 96.0085 0.0333131 93.6369C0.0373365 88.6532 0.0272171 83.6699 0.0171041 78.6868C-0.00404133 68.2629 -0.0252023 57.84 0.0830098 47.417C0.179279 38.1996 4.28153 30.9901 12.0777 26.296C25.1562 18.4304 38.3713 10.7971 51.5087 3.03744C55.4371 0.713325 59.6807 -0.108808 64.1447 0.0113507C68.1957 0.123604 71.9657 1.17657 75.5028 3.27776C88.516 10.9995 101.573 18.6502 114.616 26.3213C120.232 29.6257 123.581 34.7087 125.573 40.8384ZM83.4231 92.663L104.506 71.1973C105.234 70.4574 105.644 69.4519 105.642 68.4052L105.641 59.0155C105.641 57.9657 105.232 56.9617 104.504 56.2202L89.3529 40.7925C88.6247 40.0526 87.6372 39.6352 86.6077 39.6352H77.3831C76.3521 39.6352 75.3661 40.051 74.6379 40.7925L53.5599 62.255C52.8332 62.9965 52.4233 64.002 52.4233 65.0503V74.4416C52.4233 75.493 52.8332 76.4985 53.563 77.24L54.2368 77.9246C55.7538 79.4677 58.2102 79.463 59.7257 77.9183C61.0641 76.5523 61.2178 74.4384 60.1868 72.9001V66.6866L78.9902 47.5403H85.0007L97.8773 60.6534L97.8789 66.7689L79.0709 85.9167H72.975C71.458 84.848 69.3665 85.0045 68.0218 86.3784C66.5079 87.9231 66.5095 90.4258 68.028 91.9674L68.7159 92.6662C69.4441 93.4045 70.4301 93.8203 71.4579 93.8203H80.6779C81.7089 93.8203 82.6949 93.4045 83.4231 92.663ZM49.116 101.365C50.147 101.365 51.133 100.949 51.8612 100.208L72.9392 78.7436C73.6659 78.0021 74.0758 76.9966 74.0758 75.9483V66.557C74.0758 65.5056 73.6659 64.4985 72.933 63.757L72.2591 63.074C70.7421 61.5325 68.2826 61.5388 66.7703 63.0866C65.435 64.4527 65.2828 66.5649 66.3122 68.1017V74.3135L47.5074 93.4598L41.4984 93.4614L28.6218 80.3483L28.6202 74.2329L47.4282 55.0819H53.5241C55.038 56.149 57.1295 55.9925 58.4773 54.6202C59.9911 53.0755 59.9896 50.5727 58.4711 49.0312L57.7832 48.3324C57.055 47.5941 56.069 47.1783 55.0411 47.1783H45.8211C44.7901 47.1783 43.8042 47.5941 43.0759 48.3356L21.9933 69.8013C21.2666 70.5428 20.8567 71.5483 20.8567 72.5965L20.8582 81.9847C20.8582 83.0345 21.2666 84.0384 21.9948 84.7799L37.1461 100.209C37.8744 100.949 38.8619 101.367 39.8913 101.367L49.116 101.365Z" fill="#63B5E5"/>
</svg>
